# This file uses meters as units for non-parametric coordinates.

mtllib small.mtl
g default
v -149.999725 0.000000 150.000000
v -74.999725 0.000000 150.000000
v 0.000275 0.000000 150.000000
v 75.000275 0.000000 150.000000
v 150.000183 0.000000 150.000000
v -149.999725 120.000000 150.000000
v -74.999725 120.000000 150.000000
v 0.000275 120.000000 150.000000
v 75.000275 120.000000 150.000000
v 150.000183 120.000000 150.000000
v -149.999725 240.000000 150.000000
v -74.999725 240.000000 150.000000
v 0.000275 240.000000 150.000000
v 75.000275 240.000000 150.000000
v 150.000183 240.000000 150.000000
v -149.999725 360.000000 150.000000
v -74.999725 360.000000 150.000000
v 0.000275 360.000000 150.000000
v 75.000275 360.000000 150.000000
v 150.000183 360.000000 150.000000
v -149.999725 480.000000 150.000000
v -74.999725 480.000000 150.000000
v 0.000275 480.000000 150.000000
v 75.000275 480.000000 150.000000
v 150.000183 480.000000 150.000000
v -149.999725 600.000000 150.000000
v -74.999725 600.000000 150.000000
v 0.000275 600.000000 150.000000
v 75.000275 600.000000 150.000000
v 150.000183 600.000000 150.000000
v -149.999725 600.000000 75.000000
v -74.999725 600.000000 75.000000
v 0.000275 600.000000 75.000000
v 75.000275 600.000000 75.000000
v 150.000183 600.000000 75.000000
v -149.999725 600.000000 0.000000
v -74.999725 600.000000 0.000000
v 0.000275 600.000000 0.000000
v 75.000275 600.000000 0.000000
v 150.000183 600.000000 0.000000
v -149.999725 600.000000 -75.000000
v -74.999725 600.000000 -75.000000
v 0.000275 600.000000 -75.000000
v 75.000275 600.000000 -75.000000
v 150.000183 600.000000 -75.000000
v -149.999725 600.000000 -150.000000
v -74.999725 600.000000 -150.000000
v 0.000275 600.000000 -150.000000
v 75.000275 600.000000 -150.000000
v 150.000183 600.000000 -150.000000
v -149.999725 480.000000 -150.000000
v -74.999725 480.000000 -150.000000
v 0.000275 480.000000 -150.000000
v 75.000275 480.000000 -150.000000
v 150.000183 480.000000 -150.000000
v -149.999725 360.000000 -150.000000
v -74.999725 360.000000 -150.000000
v 0.000275 360.000000 -150.000000
v 75.000275 360.000000 -150.000000
v 150.000183 360.000000 -150.000000
v -149.999725 240.000000 -150.000000
v -74.999725 240.000000 -150.000000
v 0.000275 240.000000 -150.000000
v 75.000275 240.000000 -150.000000
v 150.000183 240.000000 -150.000000
v -149.999725 120.000000 -150.000000
v -74.999725 120.000000 -150.000000
v 0.000275 120.000000 -150.000000
v 75.000275 120.000000 -150.000000
v 150.000183 120.000000 -150.000000
v -149.999725 0.000000 -150.000000
v -74.999725 0.000000 -150.000000
v 0.000275 0.000000 -150.000000
v 75.000275 0.000000 -150.000000
v 150.000183 0.000000 -150.000000
v -149.999725 0.000000 -75.000000
v -74.999725 0.000000 -75.000000
v 0.000275 0.000000 -75.000000
v 75.000275 0.000000 -75.000000
v 150.000183 0.000000 -75.000000
v -149.999725 0.000000 0.000000
v -74.999725 0.000000 0.000000
v 0.000275 0.000000 0.000000
v 75.000275 0.000000 0.000000
v 150.000183 0.000000 0.000000
v -149.999725 0.000000 75.000000
v -74.999725 0.000000 75.000000
v 0.000275 0.000000 75.000000
v 75.000275 0.000000 75.000000
v 150.000183 0.000000 75.000000
v 150.000183 120.000000 -75.000000
v 150.000183 120.000000 0.000000
v 150.000183 120.000000 75.000000
v 150.000183 240.000000 -75.000000
v 150.000183 240.000000 0.000000
v 150.000183 240.000000 75.000000
v 150.000183 360.000000 -75.000000
v 150.000183 360.000000 0.000000
v 150.000183 360.000000 75.000000
v 150.000183 480.000000 -75.000000
v 150.000183 480.000000 0.000000
v 150.000183 480.000000 75.000000
v -149.999725 120.000000 -75.000000
v -149.999725 120.000000 0.000000
v -149.999725 120.000000 75.000000
v -149.999725 240.000000 -75.000000
v -149.999725 240.000000 0.000000
v -149.999725 240.000000 75.000000
v -149.999725 360.000000 -75.000000
v -149.999725 360.000000 0.000000
v -149.999725 360.000000 75.000000
v -149.999725 480.000000 -75.000000
v -149.999725 480.000000 0.000000
v -149.999725 480.000000 75.000000
vt 0.048469 0.521504
vt 0.161717 0.521504
vt 0.161717 0.612102
vt 0.048469 0.612102
vt 0.274965 0.521504
vt 0.274965 0.612102
vt 0.388212 0.521504
vt 0.388212 0.612102
vt 0.501460 0.521504
vt 0.501460 0.612102
vt 0.161717 0.702701
vt 0.048469 0.702701
vt 0.274965 0.702701
vt 0.388212 0.702701
vt 0.501460 0.702701
vt 0.161717 0.793299
vt 0.048469 0.793299
vt 0.274965 0.793299
vt 0.388212 0.793299
vt 0.501460 0.793299
vt 0.161717 0.883897
vt 0.048469 0.883897
vt 0.274965 0.883897
vt 0.388212 0.883897
vt 0.501460 0.883897
vt 0.524434 0.054116
vt 0.637682 0.054116
vt 0.637682 0.167363
vt 0.524434 0.167363
vt 0.750930 0.054116
vt 0.750930 0.167363
vt 0.864178 0.054116
vt 0.864178 0.167363
vt 0.977426 0.054116
vt 0.977426 0.167363
vt 0.637682 0.280611
vt 0.524434 0.280611
vt 0.750930 0.280611
vt 0.864178 0.280611
vt 0.977426 0.280611
vt 0.637682 0.393859
vt 0.524434 0.393859
vt 0.750930 0.393859
vt 0.864178 0.393859
vt 0.977426 0.393859
vt 0.637682 0.507107
vt 0.524434 0.507107
vt 0.750930 0.507107
vt 0.864178 0.507107
vt 0.977426 0.507107
vt 0.161717 0.974495
vt 0.048469 0.974495
vt 0.274965 0.974495
vt 0.388212 0.974495
vt 0.501460 0.974495
vt 0.048469 0.974495
vt 0.161717 0.974495
vt 0.161717 0.883897
vt 0.048469 0.883897
vt 0.274965 0.974495
vt 0.274965 0.883897
vt 0.388212 0.974495
vt 0.388212 0.883897
vt 0.501460 0.974495
vt 0.501460 0.883897
vt 0.161717 0.793299
vt 0.048469 0.793299
vt 0.274965 0.793299
vt 0.388212 0.793299
vt 0.501460 0.793299
vt 0.262500 0.046424
vt 0.375748 0.046424
vt 0.375748 0.046424
vt 0.262500 0.046424
vt 0.036004 0.499415
vt 0.149252 0.499415
vt 0.149252 0.386167
vt 0.036004 0.386167
vt 0.262500 0.499415
vt 0.262500 0.386167
vt 0.375748 0.499415
vt 0.375748 0.386167
vt 0.488996 0.499415
vt 0.488996 0.386167
vt 0.149252 0.272919
vt 0.036004 0.272919
vt 0.262500 0.272919
vt 0.375748 0.272919
vt 0.488996 0.272919
vt 0.149252 0.159672
vt 0.036004 0.159672
vt 0.262500 0.159672
vt 0.375748 0.159672
vt 0.488996 0.159672
vt 0.149252 0.046424
vt 0.855985 0.519470
vt 0.969233 0.519470
vt 0.969233 0.610069
vt 0.855985 0.610069
vt 0.742738 0.519470
vt 0.742738 0.610069
vt 0.629490 0.519470
vt 0.629490 0.610069
vt 0.516242 0.519470
vt 0.516242 0.610069
vt 0.969233 0.700667
vt 0.855985 0.700667
vt 0.742738 0.700667
vt 0.629490 0.700667
vt 0.516242 0.700667
vt 0.969233 0.791265
vt 0.855985 0.791265
vt 0.742738 0.791265
vt 0.629490 0.791265
vt 0.516242 0.791265
vt 0.969233 0.881863
vt 0.855985 0.881863
vt 0.742738 0.881863
vt 0.629490 0.881863
vt 0.516242 0.881863
vt 0.969233 0.972462
vt 0.855985 0.972462
vt 0.742738 0.972462
vt 0.629490 0.972462
vt 0.516242 0.972462
vt 0.969233 0.519470
vt 0.855985 0.519470
vt 0.855985 0.610069
vt 0.969233 0.610069
vt 0.742738 0.519470
vt 0.742738 0.610069
vt 0.629490 0.519470
vt 0.629490 0.610069
vt 0.516242 0.519470
vt 0.516242 0.610069
vt 0.855985 0.700667
vt 0.969233 0.700667
vt 0.742738 0.700667
vt 0.629490 0.700667
vt 0.516242 0.700667
vt 0.855985 0.791265
vt 0.969233 0.791265
vt 0.742738 0.791265
vt 0.629490 0.791265
vt 0.516242 0.791265
vt 0.855985 0.881863
vt 0.969233 0.881863
vt 0.742738 0.881863
vt 0.629490 0.881863
vt 0.516242 0.881863
vt 0.855985 0.972462
vt 0.969233 0.972462
vt 0.742738 0.972462
vt 0.629490 0.972462
vt 0.516242 0.972462
vt 0.161717 0.702701
vt 0.048469 0.702701
vt 0.274965 0.702701
vt 0.388212 0.702701
vt 0.501460 0.702701
vt 0.161717 0.612102
vt 0.048469 0.612102
vt 0.274965 0.612102
vt 0.388212 0.612102
vt 0.501460 0.612102
vt 0.161717 0.521504
vt 0.048469 0.521504
vt 0.274965 0.521504
vt 0.388212 0.521504
vt 0.501460 0.521504
vt 0.036004 0.046424
vt 0.262500 0.046424
vt 0.375748 0.046424
vt 0.488996 0.046424
vn 0.000000 0.000000 1.000000
vn 0.000000 0.000000 1.000000
vn 0.000000 0.000000 1.000000
vn 0.000000 0.000000 1.000000
vn 0.000000 0.000000 1.000000
vn 0.000000 0.000000 1.000000
vn 0.000000 0.000000 1.000000
vn 0.000000 0.000000 1.000000
vn 0.000000 0.000000 1.000000
vn 0.000000 0.000000 1.000000
vn 0.000000 0.000000 1.000000
vn 0.000000 0.000000 1.000000
vn 0.000000 0.000000 1.000000
vn 0.000000 0.000000 1.000000
vn 0.000000 0.000000 1.000000
vn 0.000000 0.000000 1.000000
vn 0.000000 0.000000 1.000000
vn 0.000000 0.000000 1.000000
vn 0.000000 0.000000 1.000000
vn 0.000000 0.000000 1.000000
vn 0.000000 0.000000 1.000000
vn 0.000000 0.000000 1.000000
vn 0.000000 0.000000 1.000000
vn 0.000000 0.000000 1.000000
vn 0.000000 0.000000 1.000000
vn 0.000000 0.000000 1.000000
vn 0.000000 0.000000 1.000000
vn 0.000000 0.000000 1.000000
vn 0.000000 0.000000 1.000000
vn 0.000000 0.000000 1.000000
vn 0.000000 1.000000 0.000000
vn 0.000000 1.000000 0.000000
vn 0.000000 1.000000 0.000000
vn 0.000000 1.000000 0.000000
vn 0.000000 1.000000 0.000000
vn 0.000000 1.000000 0.000000
vn 0.000000 1.000000 0.000000
vn 0.000000 1.000000 0.000000
vn 0.000000 1.000000 0.000000
vn 0.000000 1.000000 0.000000
vn 0.000000 1.000000 0.000000
vn 0.000000 1.000000 0.000000
vn 0.000000 1.000000 0.000000
vn 0.000000 1.000000 0.000000
vn 0.000000 1.000000 0.000000
vn 0.000000 1.000000 0.000000
vn 0.000000 1.000000 0.000000
vn 0.000000 1.000000 0.000000
vn 0.000000 1.000000 0.000000
vn 0.000000 1.000000 0.000000
vn 0.000000 1.000000 0.000000
vn 0.000000 1.000000 0.000000
vn 0.000000 1.000000 0.000000
vn 0.000000 1.000000 0.000000
vn 0.000000 1.000000 0.000000
vn 0.000000 0.000000 -1.000000
vn 0.000000 0.000000 -1.000000
vn 0.000000 0.000000 -1.000000
vn 0.000000 0.000000 -1.000000
vn 0.000000 0.000000 -1.000000
vn 0.000000 0.000000 -1.000000
vn 0.000000 0.000000 -1.000000
vn 0.000000 0.000000 -1.000000
vn 0.000000 0.000000 -1.000000
vn 0.000000 0.000000 -1.000000
vn 0.000000 0.000000 -1.000000
vn 0.000000 0.000000 -1.000000
vn 0.000000 0.000000 -1.000000
vn 0.000000 0.000000 -1.000000
vn 0.000000 0.000000 -1.000000
vn 0.000000 0.000000 -1.000000
vn 0.000000 0.000000 -1.000000
vn 0.000000 0.000000 -1.000000
vn 0.000000 0.000000 -1.000000
vn 0.000000 0.000000 -1.000000
vn 0.000000 0.000000 -1.000000
vn 0.000000 0.000000 -1.000000
vn 0.000000 0.000000 -1.000000
vn 0.000000 0.000000 -1.000000
vn 0.000000 0.000000 -1.000000
vn 0.000000 0.000000 -1.000000
vn 0.000000 0.000000 -1.000000
vn 0.000000 0.000000 -1.000000
vn 0.000000 0.000000 -1.000000
vn 0.000000 0.000000 -1.000000
vn 0.000000 -1.000000 0.000000
vn 0.000000 -1.000000 0.000000
vn 0.000000 -1.000000 0.000000
vn 0.000000 -1.000000 0.000000
vn 0.000000 -1.000000 0.000000
vn 0.000000 -1.000000 0.000000
vn 0.000000 -1.000000 0.000000
vn 0.000000 -1.000000 0.000000
vn 0.000000 -1.000000 0.000000
vn 0.000000 -1.000000 0.000000
vn 0.000000 -1.000000 0.000000
vn 0.000000 -1.000000 0.000000
vn 0.000000 -1.000000 0.000000
vn 0.000000 -1.000000 0.000000
vn 0.000000 -1.000000 0.000000
vn 0.000000 -1.000000 0.000000
vn 0.000000 -1.000000 0.000000
vn 0.000000 -1.000000 0.000000
vn 0.000000 -1.000000 0.000000
vn 0.000000 -1.000000 0.000000
vn 0.000000 -1.000000 0.000000
vn 0.000000 -1.000000 0.000000
vn 0.000000 -1.000000 0.000000
vn 0.000000 -1.000000 0.000000
vn 0.000000 -1.000000 0.000000
vn 1.000000 0.000000 0.000000
vn 1.000000 0.000000 0.000000
vn 1.000000 0.000000 0.000000
vn 1.000000 0.000000 0.000000
vn 1.000000 0.000000 0.000000
vn 1.000000 0.000000 0.000000
vn 1.000000 0.000000 0.000000
vn 1.000000 0.000000 0.000000
vn 1.000000 0.000000 0.000000
vn 1.000000 0.000000 0.000000
vn 1.000000 0.000000 0.000000
vn 1.000000 0.000000 0.000000
vn 1.000000 0.000000 0.000000
vn 1.000000 0.000000 0.000000
vn 1.000000 0.000000 0.000000
vn 1.000000 0.000000 0.000000
vn 1.000000 0.000000 0.000000
vn 1.000000 0.000000 0.000000
vn 1.000000 0.000000 0.000000
vn 1.000000 0.000000 0.000000
vn 1.000000 0.000000 0.000000
vn 1.000000 0.000000 0.000000
vn 1.000000 0.000000 0.000000
vn 1.000000 0.000000 0.000000
vn 1.000000 0.000000 0.000000
vn 1.000000 0.000000 0.000000
vn 1.000000 0.000000 0.000000
vn 1.000000 0.000000 0.000000
vn 1.000000 0.000000 0.000000
vn 1.000000 0.000000 0.000000
vn -1.000000 0.000000 0.000000
vn -1.000000 0.000000 0.000000
vn -1.000000 0.000000 0.000000
vn -1.000000 0.000000 0.000000
vn -1.000000 0.000000 0.000000
vn -1.000000 0.000000 0.000000
vn -1.000000 0.000000 0.000000
vn -1.000000 0.000000 0.000000
vn -1.000000 0.000000 0.000000
vn -1.000000 0.000000 0.000000
vn -1.000000 0.000000 0.000000
vn -1.000000 0.000000 0.000000
vn -1.000000 0.000000 0.000000
vn -1.000000 0.000000 0.000000
vn -1.000000 0.000000 0.000000
vn -1.000000 0.000000 0.000000
vn -1.000000 0.000000 0.000000
vn -1.000000 0.000000 0.000000
vn -1.000000 0.000000 0.000000
vn -1.000000 0.000000 0.000000
vn -1.000000 0.000000 0.000000
vn -1.000000 0.000000 0.000000
vn -1.000000 0.000000 0.000000
vn -1.000000 0.000000 0.000000
vn -1.000000 0.000000 0.000000
vn -1.000000 0.000000 0.000000
vn -1.000000 0.000000 0.000000
vn -1.000000 0.000000 0.000000
vn -1.000000 0.000000 0.000000
vn -1.000000 0.000000 0.000000
s 1
g pCube121
usemtl lambert9SG
f 1/1/1 2/2/2 7/3/3 6/4/4
f 2/2/2 3/5/5 8/6/6 7/3/3
f 3/5/5 4/7/7 9/8/8 8/6/6
f 4/7/7 5/9/9 10/10/10 9/8/8
f 6/4/4 7/3/3 12/11/11 11/12/12
f 7/3/3 8/6/6 13/13/13 12/11/11
f 8/71/6 9/72/8 14/73/14 13/74/13
f 9/8/8 10/10/10 15/15/15 14/14/14
f 11/12/12 12/11/11 17/16/16 16/17/17
f 12/11/11 13/13/13 18/18/18 17/16/16
f 13/13/13 14/14/14 19/19/19 18/18/18
f 14/14/14 15/15/15 20/20/20 19/19/19
f 16/17/17 17/16/16 22/21/21 21/22/22
f 17/16/16 18/18/18 23/23/23 22/21/21
f 18/18/18 19/19/19 24/24/24 23/23/23
f 19/19/19 20/20/20 25/25/25 24/24/24
f 21/22/22 22/21/21 27/51/26 26/52/27
f 22/21/21 23/23/23 28/53/28 27/51/26
f 23/23/23 24/24/24 29/54/29 28/53/28
f 24/24/24 25/25/25 30/55/30 29/54/29
s 2
f 26/26/31 27/27/32 32/28/33 31/29/34
f 27/27/32 28/30/35 33/31/36 32/28/33
f 28/30/35 29/32/37 34/33/38 33/31/36
f 29/32/37 30/34/39 35/35/40 34/33/38
f 31/29/34 32/28/33 37/36/41 36/37/42
f 32/28/33 33/31/36 38/38/43 37/36/41
f 33/31/36 34/33/38 39/39/44 38/38/43
f 34/33/38 35/35/40 40/40/45 39/39/44
f 36/37/42 37/36/41 42/41/46 41/42/47
f 37/36/41 38/38/43 43/43/48 42/41/46
f 38/38/43 39/39/44 44/44/49 43/43/48
f 39/39/44 40/40/45 45/45/50 44/44/49
f 41/42/47 42/41/46 47/46/51 46/47/52
f 42/41/46 43/43/48 48/48/53 47/46/51
f 43/43/48 44/44/49 49/49/54 48/48/53
f 44/44/49 45/45/50 50/50/55 49/49/54
s 3
f 46/56/56 47/57/57 52/58/58 51/59/59
f 47/57/57 48/60/60 53/61/61 52/58/58
f 48/60/60 49/62/62 54/63/63 53/61/61
f 49/62/62 50/64/64 55/65/65 54/63/63
f 51/59/59 52/58/58 57/66/66 56/67/67
f 52/58/58 53/61/61 58/68/68 57/66/66
f 53/61/61 54/63/63 59/69/69 58/68/68
f 54/63/63 55/65/65 60/70/70 59/69/69
f 56/67/67 57/66/66 62/156/71 61/157/72
f 57/66/66 58/68/68 63/158/73 62/156/71
f 58/68/68 59/69/69 64/159/74 63/158/73
f 59/69/69 60/70/70 65/160/75 64/159/74
f 61/157/72 62/156/71 67/161/76 66/162/77
f 62/156/71 63/158/73 68/163/78 67/161/76
f 63/158/73 64/159/74 69/164/79 68/163/78
f 64/159/74 65/160/75 70/165/80 69/164/79
f 66/162/77 67/161/76 72/166/81 71/167/82
f 67/161/76 68/163/78 73/168/83 72/166/81
f 68/163/78 69/164/79 74/169/84 73/168/83
f 69/164/79 70/165/80 75/170/85 74/169/84
s 4
f 71/75/86 72/76/87 77/77/88 76/78/89
f 72/76/87 73/79/90 78/80/91 77/77/88
f 73/79/90 74/81/92 79/82/93 78/80/91
f 74/81/92 75/83/94 80/84/95 79/82/93
f 76/78/89 77/77/88 82/85/96 81/86/97
f 77/77/88 78/80/91 83/87/98 82/85/96
f 78/80/91 79/82/93 84/88/99 83/87/98
f 79/82/93 80/84/95 85/89/100 84/88/99
f 81/86/97 82/85/96 87/90/101 86/91/102
f 82/85/96 83/87/98 88/92/103 87/90/101
f 83/87/98 84/88/99 89/93/104 88/92/103
f 84/88/99 85/89/100 90/94/105 89/93/104
f 86/91/102 87/90/101 2/95/106 1/171/107
f 87/90/101 88/92/103 3/172/108 2/95/106
f 88/92/103 89/93/104 4/173/109 3/172/108
f 89/93/104 90/94/105 5/174/110 4/173/109
s 5
f 80/96/111 75/97/112 70/98/113 91/99/114
f 85/100/115 80/96/111 91/99/114 92/101/116
f 90/102/117 85/100/115 92/101/116 93/103/118
f 5/104/119 90/102/117 93/103/118 10/105/120
f 91/99/114 70/98/113 65/106/121 94/107/122
f 92/101/116 91/99/114 94/107/122 95/108/123
f 93/103/118 92/101/116 95/108/123 96/109/124
f 10/105/120 93/103/118 96/109/124 15/110/125
f 94/107/122 65/106/121 60/111/126 97/112/127
f 95/108/123 94/107/122 97/112/127 98/113/128
f 96/109/124 95/108/123 98/113/128 99/114/129
f 15/110/125 96/109/124 99/114/129 20/115/130
f 97/112/127 60/111/126 55/116/131 100/117/132
f 98/113/128 97/112/127 100/117/132 101/118/133
f 99/114/129 98/113/128 101/118/133 102/119/134
f 20/115/130 99/114/129 102/119/134 25/120/135
f 100/117/132 55/116/131 50/121/136 45/122/137
f 101/118/133 100/117/132 45/122/137 40/123/138
f 102/119/134 101/118/133 40/123/138 35/124/139
f 25/120/135 102/119/134 35/124/139 30/125/140
s 6
f 71/126/141 76/127/142 103/128/143 66/129/144
f 76/127/142 81/130/145 104/131/146 103/128/143
f 81/130/145 86/132/147 105/133/148 104/131/146
f 86/132/147 1/134/149 6/135/150 105/133/148
f 66/129/144 103/128/143 106/136/151 61/137/152
f 103/128/143 104/131/146 107/138/153 106/136/151
f 104/131/146 105/133/148 108/139/154 107/138/153
f 105/133/148 6/135/150 11/140/155 108/139/154
f 61/137/152 106/136/151 109/141/156 56/142/157
f 106/136/151 107/138/153 110/143/158 109/141/156
f 107/138/153 108/139/154 111/144/159 110/143/158
f 108/139/154 11/140/155 16/145/160 111/144/159
f 56/142/157 109/141/156 112/146/161 51/147/162
f 109/141/156 110/143/158 113/148/163 112/146/161
f 110/143/158 111/144/159 114/149/164 113/148/163
f 111/144/159 16/145/160 21/150/165 114/149/164
f 51/147/162 112/146/161 41/151/166 46/152/167
f 112/146/161 113/148/163 36/153/168 41/151/166
f 113/148/163 114/149/164 31/154/169 36/153/168
f 114/149/164 21/150/165 26/155/170 31/154/169
